<svg xmlns="http://www.w3.org/2000/svg" width="28" height="28" viewBox="0 0 28 28"><path d="M26.567,11.061,24.6,10.727a11.1,11.1,0,0,0-.79-1.907L24.97,7.2a1.724,1.724,0,0,0-.187-2.229L23.04,3.229a1.717,1.717,0,0,0-1.222-.509,1.7,1.7,0,0,0-1,.322L19.191,4.2a10.982,10.982,0,0,0-1.977-.813l-.328-1.942A1.728,1.728,0,0,0,15.179,0H12.716a1.728,1.728,0,0,0-1.708,1.445l-.339,1.989a10.824,10.824,0,0,0-1.9.8L7.159,3.077a1.728,1.728,0,0,0-2.229.187L3.182,5.007a1.731,1.731,0,0,0-.187,2.229l1.17,1.644a10.839,10.839,0,0,0-.778,1.913l-1.942.328A1.728,1.728,0,0,0,0,12.827V15.29A1.728,1.728,0,0,0,1.445,17l1.989.339a10.824,10.824,0,0,0,.8,1.9l-1.152,1.6a1.724,1.724,0,0,0,.187,2.229l1.743,1.743a1.717,1.717,0,0,0,1.222.509,1.7,1.7,0,0,0,1-.322l1.644-1.17a11.065,11.065,0,0,0,1.848.76l.328,1.965A1.728,1.728,0,0,0,12.763,28h2.468a1.728,1.728,0,0,0,1.708-1.445l.333-1.965a11.1,11.1,0,0,0,1.907-.79l1.62,1.158a1.717,1.717,0,0,0,1.006.322h0a1.717,1.717,0,0,0,1.222-.509l1.743-1.743a1.731,1.731,0,0,0,.187-2.229L23.8,19.174a11.017,11.017,0,0,0,.79-1.907l1.965-.328A1.728,1.728,0,0,0,28,15.231V12.769A1.707,1.707,0,0,0,26.567,11.061Zm-.135,4.17a.151.151,0,0,1-.129.152l-2.457.409a.785.785,0,0,0-.632.579A9.364,9.364,0,0,1,22.2,18.823a.791.791,0,0,0,.035.86l1.445,2.036a.159.159,0,0,1-.018.2L21.917,23.66a.149.149,0,0,1-.111.047.144.144,0,0,1-.088-.029l-2.03-1.445a.79.79,0,0,0-.86-.035,9.364,9.364,0,0,1-2.451,1.018.776.776,0,0,0-.579.632L15.383,26.3a.151.151,0,0,1-.152.129H12.769a.151.151,0,0,1-.152-.129l-.409-2.457a.785.785,0,0,0-.579-.632,9.723,9.723,0,0,1-2.4-.983.81.81,0,0,0-.4-.105.77.77,0,0,0-.456.146L6.329,23.73a.174.174,0,0,1-.088.029.157.157,0,0,1-.111-.047L4.387,21.969a.159.159,0,0,1-.018-.2l1.439-2.018a.8.8,0,0,0,.035-.866,9.275,9.275,0,0,1-1.029-2.445.8.8,0,0,0-.632-.579l-2.474-.421a.151.151,0,0,1-.129-.152V12.827a.151.151,0,0,1,.129-.152l2.439-.409a.791.791,0,0,0,.638-.585,9.354,9.354,0,0,1,1-2.457.781.781,0,0,0-.041-.854L4.287,6.323a.159.159,0,0,1,.018-.2L6.048,4.381a.149.149,0,0,1,.111-.047.144.144,0,0,1,.088.029L8.265,5.8a.8.8,0,0,0,.866.035,9.275,9.275,0,0,1,2.445-1.029.8.8,0,0,0,.579-.632L12.576,1.7a.151.151,0,0,1,.152-.129H15.19a.151.151,0,0,1,.152.129l.409,2.439a.791.791,0,0,0,.585.638,9.494,9.494,0,0,1,2.509,1.029.791.791,0,0,0,.86-.035l2.018-1.451a.174.174,0,0,1,.088-.029.157.157,0,0,1,.111.047l1.743,1.743a.159.159,0,0,1,.018.2l-1.445,2.03a.79.79,0,0,0-.035.86,9.364,9.364,0,0,1,1.018,2.451.776.776,0,0,0,.632.579l2.457.415a.151.151,0,0,1,.129.152l-.006,2.463Z" fill="#414851"/><path d="M141.817,136a5.717,5.717,0,1,0,5.717,5.717A5.72,5.72,0,0,0,141.817,136Zm0,9.939a4.223,4.223,0,1,1,4.223-4.223A4.225,4.225,0,0,1,141.817,145.939Z" transform="translate(-127.814 -127.72)" fill="#414851"/></svg>