<svg xmlns="http://www.w3.org/2000/svg" width="16" height="12" viewBox="0 0 16 12"><g opacity="0.498"><g transform="translate(0 5.608)"><path d="M15.2,173.3H14.67v-.4h-.533v.4H.8a.783.783,0,1,0,0,1.566v3.654a.784.784,0,0,0,.61.76l13.129.01a.787.787,0,0,0,.66-.77v-3.654a.783.783,0,1,0,0-1.566Zm-.533,5.22a.265.265,0,0,1-.267.261H1.6a.265.265,0,0,1-.267-.261v-3.654H14.67Zm.533-4.176H.8a.261.261,0,1,1,0-.522H15.2a.261.261,0,1,1,0,.522Z" transform="translate(0 -172.9)" fill="#151515"/></g><g transform="translate(8.173)"><path d="M245.742,0H242.61a.785.785,0,0,0-.783.783v.783h-1.566a.262.262,0,0,0-.261.261V2.871a.262.262,0,0,0,.261.261h3.654a.262.262,0,0,0,.261-.261V1.827a.262.262,0,0,0-.261-.261h-1.566V.783a.262.262,0,0,1,.261-.261h3.132A.262.262,0,0,1,246,.783V5.645h.522V.783A.785.785,0,0,0,245.742,0Zm-2.088,2.088V2.61h-3.132V2.088Z" transform="translate(-240 0)" fill="#151515"/></g><path d="M248,112h.522v.522H248Z" transform="translate(-239.726 -108.356)" fill="#151515"/><path d="M248,144h.522v.522H248Z" transform="translate(-239.726 -139.315)" fill="#151515"/><path d="M280,112h.522v.522H280Z" transform="translate(-270.658 -108.356)" fill="#151515"/><path d="M280,144h.522v.522H280Z" transform="translate(-270.658 -139.315)" fill="#151515"/><path d="M312,112h.522v.522H312Z" transform="translate(-301.59 -108.356)" fill="#151515"/><path d="M312,144h.522v.522H312Z" transform="translate(-301.59 -139.315)" fill="#151515"/><path d="M344,112h.522v.522H344Z" transform="translate(-332.522 -108.356)" fill="#151515"/><path d="M344,144h.522v.522H344Z" transform="translate(-332.522 -139.315)" fill="#151515"/></g></svg>