<svg xmlns="http://www.w3.org/2000/svg" width="16" height="12" viewBox="0 0 16 12"><g opacity="0.498"><g transform="translate(0 0)"><path d="M12.8,2.97v.522a.79.79,0,0,1-.8.783H9.867a.79.79,0,0,1-.8-.783V2.97a.79.79,0,0,1,.8-.783H12A.79.79,0,0,1,12.8,2.97Zm-5.867,0v.522a.79.79,0,0,1-.8.783H4a.79.79,0,0,1-.8-.783V2.97A.79.79,0,0,1,4,2.187H6.133A.79.79,0,0,1,6.933,2.97ZM1.067,5.578a.79.79,0,0,1,.8-.783H14.133a.79.79,0,0,1,.8.783v.783H1.067Zm.533,6H1.067V10.535H1.6Zm13.333,0H14.4V10.535h.533Zm.533-1.565H.533V6.883H15.467Zm.267-3.652h-.267V5.578a1.3,1.3,0,0,0-.8-1.193V.361a.257.257,0,0,0-.16-.238c.007-.007-.86-.023-.86-.023-.017,0-.03,0-.047,0a.225.225,0,0,1-.047,0h-1.9L1.487.11s0,.007.007.01a.265.265,0,0,0-.16.241V4.385a1.3,1.3,0,0,0-.8,1.193v.783H.267A.265.265,0,0,0,0,6.622v3.652a.265.265,0,0,0,.267.261H.533v1.3A.265.265,0,0,0,.8,12.1H1.867a.265.265,0,0,0,.267-.261v-1.3H13.867v1.3a.265.265,0,0,0,.267.261H15.2a.265.265,0,0,0,.267-.261v-1.3h.267A.265.265,0,0,0,16,10.274V6.622A.262.262,0,0,0,15.733,6.361Zm-1.6-2.087H13.06a1.265,1.265,0,0,0,.273-.783V2.97A1.319,1.319,0,0,0,12,1.665H9.867a1.319,1.319,0,0,0-1.333,1.3v.522a1.265,1.265,0,0,0,.273.783H7.193a1.265,1.265,0,0,0,.273-.783V2.97a1.319,1.319,0,0,0-1.333-1.3H4a1.319,1.319,0,0,0-1.333,1.3v.522a1.265,1.265,0,0,0,.273.783H1.867V.622H14.133Z" transform="translate(0 -0.1)" fill="#151515"/></g></g></svg>