<svg xmlns="http://www.w3.org/2000/svg" xmlns:xlink="http://www.w3.org/1999/xlink" width="238.411" height="42.965" viewBox="0 0 238.411 42.965"><defs><clipPath id="clip-path"><path id="Path_253" data-name="Path 253" d="M0,9.241H238.411V-33.724H0Z" transform="translate(0 33.724)" fill="#fff"/></clipPath></defs><g id="Group_335" data-name="Group 335" transform="translate(0 33.724)"><g id="Group_322" data-name="Group 322" transform="translate(0 -33.724)" clip-path="url(#clip-path)"><g id="Group_321" data-name="Group 321" transform="translate(16.317 11.367)"><path id="Path_252" data-name="Path 252" d="M1.772,1.851,1.31,1.714C-1.06,1.012-3.3.351-3.3-1.5-3.3-3.25-1.646-4.43.814-4.43A4.429,4.429,0,0,1,5.42-.87l.036.19,2.477-.662L7.9-1.508c-.645-3.138-3.46-5.248-7-5.248-3.882,0-6.807,2.31-6.807,5.374,0,3.4,3.3,4.434,5.483,5.116l.043.013c.34.107.689.21,1.04.312C3.035,4.759,5.5,5.482,5.5,7.788,5.5,9.773,3.734,11.1,1.111,11.1A4.705,4.705,0,0,1-3.926,7.084l-.023-.2-2.519.666.032.163c.665,3.557,3.525,5.766,7.463,5.766,4.226,0,7.178-2.361,7.178-5.742,0-3.963-4.027-5.166-6.433-5.882" transform="translate(6.468 6.756)" fill="#fff"/></g></g><g id="Group_323" data-name="Group 323" transform="translate(36.685 -21.976)"><path id="Path_254" data-name="Path 254" d="M0,.529H6.388V17.54H8.956V.529h6.416v-2.46H0Z" transform="translate(0 1.931)" fill="#fff"/></g><g id="Group_324" data-name="Group 324" transform="translate(59.754 -21.977)"><path id="Path_255" data-name="Path 255" d="M.558,2.227H9V-.119H.558V-5.665H11.066V-8.128h-13.1V11.343H11.236V8.883H.558Z" transform="translate(2.037 8.128)" fill="#fff"/></g><g id="Group_326" data-name="Group 326" transform="translate(0 -33.724)" clip-path="url(#clip-path)"><g id="Group_325" data-name="Group 325" transform="translate(79.708 11.747)"><path id="Path_256" data-name="Path 256" d="M2.258,2.968C1.9,3.915,1.515,4.952,1.312,5.5c-.19-.554-.555-1.6-.934-2.538L-5.429-10.831H-8.241L.073,8.64h2.5l8.323-19.471H8.1Z" transform="translate(8.241 10.831)" fill="#fff"/></g></g><g id="Group_327" data-name="Group 327" transform="translate(105.919 -21.977)"><path id="Path_258" data-name="Path 258" d="M.558,2.227H9V-.119H.558V-5.665H11.074V-8.128H-2.036V11.343H11.236V8.883H.558Z" transform="translate(2.036 8.128)" fill="#fff"/></g><g id="Group_331" data-name="Group 331" transform="translate(0 -33.724)" clip-path="url(#clip-path)"><g id="Group_328" data-name="Group 328" transform="translate(125.655 11.367)"><path id="Path_259" data-name="Path 259" d="M1.77,1.851l-.461-.138c-2.365-.7-4.6-1.363-4.6-3.209,0-1.754,1.652-2.934,4.11-2.934a4.425,4.425,0,0,1,4.6,3.56l.032.19,2.477-.662L7.9-1.508C7.257-4.646,4.443-6.756.9-6.756c-3.944,0-6.807,2.26-6.807,5.374,0,3.4,3.293,4.431,5.473,5.114l.048.015c.34.106.688.21,1.036.311,2.384.7,4.848,1.423,4.848,3.73C5.5,9.773,3.74,11.1,1.119,11.1c-3.142,0-4.79-2.018-5.035-4.02l-.025-.205-2.519.666.031.163c.666,3.557,3.528,5.766,7.467,5.766,4.221,0,7.169-2.361,7.169-5.742,0-3.971-4.03-5.167-6.436-5.882" transform="translate(6.46 6.756)" fill="#fff"/></g><g id="Group_329" data-name="Group 329" transform="translate(171.387 11.366)"><path id="Path_260" data-name="Path 260" d="M3.6,2.941l-.064.127a7.364,7.364,0,0,1-6.591,3.87,7.246,7.246,0,0,1-7.431-7.55A7.183,7.183,0,0,1-3.054-8.194,7.39,7.39,0,0,1,3.217-4.862l.068.108L5.9-5.411l-.113-.2a10.017,10.017,0,0,0-8.846-5.12A9.882,9.882,0,0,0-13.138-.611,9.875,9.875,0,0,0-3.054,9.5,9.9,9.9,0,0,0,6.064,3.831l.089-.19Z" transform="translate(13.138 10.734)" fill="#fff"/></g><g id="Group_330" data-name="Group 330" transform="translate(219.389 28.649)"><path id="Path_261" data-name="Path 261" d="M.293.583A1.328,1.328,0,0,0,1.637-.761,1.375,1.375,0,0,0,.293-2.127,1.354,1.354,0,0,0-1.069-.761,1.348,1.348,0,0,0,.293.583" transform="translate(1.069 2.127)" fill="#fff"/></g></g><path id="Path_263" data-name="Path 263" d="M0,9.241H238.411V-33.724H0ZM0-33.724m2.891,2.483H235.533V6.749H2.891Z" fill="#fff"/><g id="Group_334" data-name="Group 334" transform="translate(0 -33.724)" clip-path="url(#clip-path)"><g id="Group_332" data-name="Group 332" transform="translate(149.753 14.041)"><path id="Path_264" data-name="Path 264" d="M2.328,2.444A8.069,8.069,0,0,0,3.162.627a7.961,7.961,0,0,0,.29-2.312L1.268-2.134l-.008.257c-.005.177-.005.232-.023.471-.006.085-.029.2-.034.243A5.713,5.713,0,0,1,1-.043c-.08.257-.2.6-.3.832L-2.89-2.866c-.243-.245-.446-.482-.584-.646a4.3,4.3,0,0,1-.387-.59,2.524,2.524,0,0,1-.21-.535,1.967,1.967,0,0,1-.069-.524,2.264,2.264,0,0,1,.1-.739,1.408,1.408,0,0,1,.327-.5,1.447,1.447,0,0,1,.511-.329,1.856,1.856,0,0,1,1.3-.01,3.366,3.366,0,0,1,.415.231A3.042,3.042,0,0,1-.394-4.867c.027.125.039.208.039.208l2.037-.548c-.018-.092-.039-.186-.064-.274s-.051-.183-.084-.275c-.064-.19-.121-.327-.121-.327v0A4.143,4.143,0,0,0-1.441-8.8a4.512,4.512,0,0,0-1.052-.122,4.637,4.637,0,0,0-1.708.3,3.953,3.953,0,0,0-1.321.814,3.371,3.371,0,0,0-.823,1.162,3.82,3.82,0,0,0-.292,1.491,4.433,4.433,0,0,0,.313,1.618,5.729,5.729,0,0,0,.609,1.116,6.437,6.437,0,0,0-.8.5,5.6,5.6,0,0,0-1.038,1A4.605,4.605,0,0,0-8.236.311,3.907,3.907,0,0,0-8.5,1.743a4.021,4.021,0,0,0,.405,1.812,4.236,4.236,0,0,0,1.047,1.35,4.5,4.5,0,0,0,1.469.832,4.976,4.976,0,0,0,1.66.3,6.963,6.963,0,0,0,2.774-.552A7.888,7.888,0,0,0,.807,4.263l.828.837.8.721L2.493,5.8l2.4-.754ZM-3.7,3.886A2.645,2.645,0,0,1-5.937,2.692,2.375,2.375,0,0,1-6.051.807,3.678,3.678,0,0,1-4.363-.9L-.757,2.733A5.247,5.247,0,0,1-3.7,3.886" transform="translate(8.497 8.918)" fill="#fff"/></g><g id="Group_333" data-name="Group 333" transform="translate(197.184 11.366)"><path id="Path_265" data-name="Path 265" d="M2.171,0A9.887,9.887,0,0,0-7.923,10.123,9.881,9.881,0,0,0,2.171,20.234,9.891,9.891,0,0,0,12.283,10.123,9.9,9.9,0,0,0,2.171,0m0,17.694a7.259,7.259,0,0,1-7.438-7.57A7.186,7.186,0,0,1,2.171,2.54a7.263,7.263,0,0,1,7.435,7.583,7.258,7.258,0,0,1-7.435,7.57" transform="translate(7.923)" fill="#fff"/></g></g></g></svg>