<svg xmlns="http://www.w3.org/2000/svg" width="20" height="18" viewBox="0 0 20 18"><path d="M367.787,351.34a5.343,5.343,0,0,0-4-1.762,5.024,5.024,0,0,0-3.141,1.1,6.451,6.451,0,0,0-1.273,1.344,6.452,6.452,0,0,0-1.273-1.344,4.966,4.966,0,0,0-3.141-1.1,5.354,5.354,0,0,0-4,1.76,6.36,6.36,0,0,0-1.586,4.32,7.577,7.577,0,0,0,1.989,4.934,42.688,42.688,0,0,0,4.964,4.713c.686.593,1.464,1.264,2.272,1.98a1.159,1.159,0,0,0,1.547-.007c.808-.72,1.59-1.388,2.277-1.98a42.321,42.321,0,0,0,4.964-4.713,7.565,7.565,0,0,0,1.984-4.927A6.356,6.356,0,0,0,367.787,351.34Z" transform="translate(-349.375 -349.578)" fill="#d51f3d"/></svg>