<svg xmlns="http://www.w3.org/2000/svg" width="20" height="18" viewBox="0 0 20 18"><path d="M10,18.2a1.165,1.165,0,0,1-.773-.292c-.809-.715-1.586-1.387-2.273-1.979l0,0a42.579,42.579,0,0,1-4.965-4.713A7.571,7.571,0,0,1,0,6.28,6.36,6.36,0,0,1,1.586,1.962,5.359,5.359,0,0,1,5.586.2,4.968,4.968,0,0,1,8.727,1.3,6.475,6.475,0,0,1,10,2.642,6.475,6.475,0,0,1,11.266,1.3,5.029,5.029,0,0,1,14.414.2a5.345,5.345,0,0,1,4,1.762A6.36,6.36,0,0,1,20,6.28a7.561,7.561,0,0,1-1.984,4.927,42.251,42.251,0,0,1-4.965,4.713c-.688.593-1.469,1.264-2.277,1.983A1.169,1.169,0,0,1,10,18.2ZM5.586,1.385A4.2,4.2,0,0,0,2.445,2.764,5.2,5.2,0,0,0,1.172,6.28a6.364,6.364,0,0,0,1.715,4.172A41.6,41.6,0,0,0,7.711,15.02l0,0c.691.6,1.473,1.268,2.285,1.987.82-.723,1.6-1.395,2.293-1.991a42.262,42.262,0,0,0,4.824-4.567A6.384,6.384,0,0,0,18.832,6.28a5.18,5.18,0,0,0-1.277-3.516,4.208,4.208,0,0,0-3.141-1.379,3.842,3.842,0,0,0-2.426.849,5.763,5.763,0,0,0-1.352,1.58A.731.731,0,0,1,10,4.178a.739.739,0,0,1-.637-.363,5.763,5.763,0,0,0-1.352-1.58A3.865,3.865,0,0,0,5.586,1.385Z" transform="translate(0 -0.2)" fill="#d51f3d"/></svg>