<svg xmlns="http://www.w3.org/2000/svg" xmlns:xlink="http://www.w3.org/1999/xlink" width="185" height="122.34" viewBox="0 0 185 122.34">
  <defs>
    <clipPath id="clip-path">
      <path id="Path_253" data-name="Path 253" d="M0-.384H185v-33.34H0Z" transform="translate(0 33.724)" fill="#151515"/>
    </clipPath>
  </defs>
  <g id="Group_699" data-name="Group 699" transform="translate(3113 -3102)">
    <path id="Path_365" data-name="Path 365" d="M162.811,50.355H151.242l-6.393-15.862L140.78,50.355h-9.456L123.98,34.546V50.355h-9.933V20.211h12.76l7.906,17.039,4.377-17.039h11.518ZM101.526,35.284a5.293,5.293,0,0,0-1.638-3.926,5.385,5.385,0,0,0-3.909-1.607,5.447,5.447,0,0,0-3.962,1.607,5.524,5.524,0,0,0,0,7.852,5.447,5.447,0,0,0,3.962,1.607,5.385,5.385,0,0,0,3.909-1.607,5.293,5.293,0,0,0,1.638-3.926m9.88,0a14.893,14.893,0,0,1-4.517,10.908,15.459,15.459,0,0,1-21.873,0A14.893,14.893,0,0,1,80.5,35.284a15.446,15.446,0,0,1,15.48-15.441,14.839,14.839,0,0,1,10.91,4.531,14.9,14.9,0,0,1,4.517,10.91M79.971,50.355H61.586V20.211h9.933V42.029h8.453ZM59,50.355H48.535V20.211H59ZM36.12,40.4a1.47,1.47,0,0,0-1.691-1.634H30.573v3.32h3.856A1.493,1.493,0,0,0,36.12,40.4m0-10.225q0-1.633-1.691-1.633H30.573v3.267h3.856a1.47,1.47,0,0,0,1.691-1.634m9.774,11.857a8.333,8.333,0,0,1-8.347,8.326H20.692V20.211H37.706a7.829,7.829,0,0,1,5.81,2.425,8.112,8.112,0,0,1,2.378,5.9,8.008,8.008,0,0,1-3.381,6.745,7.919,7.919,0,0,1,3.381,6.745m127.858,7.858a3.95,3.95,0,0,1-1.133,3.153,3.9,3.9,0,0,1-2.634.8,4.185,4.185,0,0,1-2.262-.573,2.292,2.292,0,0,1-1.131-1.731h.991q.328,1.47,2.341,1.469a3.4,3.4,0,0,0,1.589-.317,2.2,2.2,0,0,0,.938-1,3,3,0,0,0,.294-.958,10.829,10.829,0,0,0,.077-1.454,2.767,2.767,0,0,1-1.068,1.021,3.516,3.516,0,0,1-1.768.479,3.242,3.242,0,0,1-2.657-1.167,4.726,4.726,0,0,1-.953-3.084,4.52,4.52,0,0,1,.96-3.122,3.426,3.426,0,0,1,2.682-1.067,3.2,3.2,0,0,1,1.736.51,2.59,2.59,0,0,1,1.037,1.113l.031-1.406h.931Zm-.931-3.34a3.844,3.844,0,0,0-.7-2.4,2.43,2.43,0,0,0-2.045-.973,2.55,2.55,0,0,0-1.054.2,2.735,2.735,0,0,0-.822.571,3.5,3.5,0,0,0-.837,2.566,3.9,3.9,0,0,0,.736,2.527,2.449,2.449,0,0,0,2.007.9,2.379,2.379,0,0,0,1.96-.951,3.825,3.825,0,0,0,.752-2.45m6.9-3.2a3.024,3.024,0,0,0-1.372.279,2.01,2.01,0,0,0-.875.912,4.511,4.511,0,0,0-.4,2.026v4h-.929V42.559h.929v1.5a2.629,2.629,0,0,1,1.146-1.408,3.164,3.164,0,0,1,1.5-.308Zm8.168,3.217a4.568,4.568,0,0,1-.993,3.037,3.349,3.349,0,0,1-2.711,1.183,3.5,3.5,0,0,1-2.636-1.067,4.374,4.374,0,0,1-1.1-3.139,4.585,4.585,0,0,1,.984-3.076,3.817,3.817,0,0,1,5.508.031,4.61,4.61,0,0,1,.946,3.032m-.993.029a4.165,4.165,0,0,0-.6-2.411,2.7,2.7,0,0,0-4.136-.077,3.922,3.922,0,0,0-.714,2.459,3.837,3.837,0,0,0,.729,2.488,2.45,2.45,0,0,0,2.014.9,2.386,2.386,0,0,0,2.076-1.036,3.964,3.964,0,0,0,.635-2.319m9.066,3.974h-.929V49.453a3.833,3.833,0,0,1-1.225,1.028,3.148,3.148,0,0,1-1.4.3,2.753,2.753,0,0,1-2.17-.82,3.018,3.018,0,0,1-.649-2.055V42.559h.929v5.271a1.847,1.847,0,0,0,2.06,2.118,2.157,2.157,0,0,0,1.845-.912,3.383,3.383,0,0,0,.6-2.057v-4.42h.929Zm9.733-3.974a4.683,4.683,0,0,1-.868,2.907,3.218,3.218,0,0,1-2.713,1.283,3.718,3.718,0,0,1-1.635-.387,2.829,2.829,0,0,1-1.232-1.113v4.436h-.929V42.559h.929v1.406a2.964,2.964,0,0,1,1.131-1.128,3.166,3.166,0,0,1,1.674-.494,3.412,3.412,0,0,1,2.634,1,4.619,4.619,0,0,1,1.008,3.246M204.7,46.5a4.76,4.76,0,0,0-.208-1.539,2.681,2.681,0,0,0-.629-1.012,2.542,2.542,0,0,0-.89-.595,2.8,2.8,0,0,0-.984-.177,2.4,2.4,0,0,0-2.093,1.034,3.982,3.982,0,0,0-.651,2.365,3.69,3.69,0,0,0,.774,2.444,2.446,2.446,0,0,0,1.954.927,2.415,2.415,0,0,0,1.99-.92A3.941,3.941,0,0,0,204.7,46.5" transform="translate(-3133.692 3082.157)" fill="#151515"/>
    <g id="Group_335" data-name="Group 335" transform="translate(-3113 3191)">
      <g id="Group_322" data-name="Group 322" transform="translate(0 0)" clip-path="url(#clip-path)">
        <g id="Group_321" data-name="Group 321" transform="translate(12.661 8.82)">
          <path id="Path_252" data-name="Path 252" d="M-.074-.077-.433-.184c-1.839-.545-3.575-1.058-3.575-2.49,0-1.361,1.281-2.277,3.19-2.277A3.437,3.437,0,0,1,2.757-2.189l.028.147,1.922-.514L4.68-2.684A5.275,5.275,0,0,0-.756-6.756c-3.012,0-5.282,1.792-5.282,4.17,0,2.64,2.56,3.44,4.255,3.97l.034.01c.264.083.535.163.807.242,1.849.543,3.759,1.1,3.759,2.894,0,1.54-1.367,2.573-3.4,2.573A3.651,3.651,0,0,1-4.5,3.983l-.018-.158-1.954.517.025.127c.516,2.76,2.735,4.474,5.791,4.474,3.279,0,5.57-1.832,5.57-4.456C4.918,1.412,1.793.479-.074-.077" transform="translate(6.468 6.756)" fill="#151515"/>
        </g>
      </g>
      <g id="Group_323" data-name="Group 323" transform="translate(28.465 9.11)">
        <path id="Path_254" data-name="Path 254" d="M0-.021H4.961v13.21H6.955V-.021h4.982v-1.91H0Z" transform="translate(0 1.931)" fill="#151515"/>
      </g>
      <g id="Group_324" data-name="Group 324" transform="translate(46.365 9.109)">
        <path id="Path_255" data-name="Path 255" d="M-.022-.087H6.532V-1.909H-.022V-6.216h8.16V-8.128H-2.037V6.992H8.27V5.082H-.022Z" transform="translate(2.037 8.128)" fill="#151515"/>
      </g>
      <g id="Group_326" data-name="Group 326" transform="translate(0 0)" clip-path="url(#clip-path)">
        <g id="Group_325" data-name="Group 325" transform="translate(61.851 9.115)">
          <path id="Path_256" data-name="Path 256" d="M-.094-.123C-.371.611-.67,1.416-.828,1.842-.976,1.412-1.259.6-1.553-.127l-4.506-10.7H-8.241L-1.789,4.278H.147L6.606-10.831H4.436Z" transform="translate(8.241 10.831)" fill="#151515"/>
        </g>
      </g>
      <g id="Group_327" data-name="Group 327" transform="translate(82.187 9.109)">
        <path id="Path_258" data-name="Path 258" d="M-.022-.087H6.531V-1.909H-.022V-6.216H8.144V-8.128H-2.036V6.992H8.27V5.082H-.022Z" transform="translate(2.036 8.128)" fill="#151515"/>
      </g>
      <g id="Group_331" data-name="Group 331" transform="translate(0 0)" clip-path="url(#clip-path)">
        <g id="Group_328" data-name="Group 328" transform="translate(97.505 8.82)">
          <path id="Path_259" data-name="Path 259" d="M-.074-.077-.431-.184C-2.266-.728-4-1.242-4-2.674-4-4.035-2.716-4.951-.809-4.951A3.433,3.433,0,0,1,2.763-2.189l.025.147,1.922-.514-.025-.129A5.274,5.274,0,0,0-.748-6.756C-3.809-6.756-6.03-5-6.03-2.586-6.03.051-3.474.852-1.783,1.382l.038.012c.264.082.534.163.8.241C.908,2.178,2.82,2.74,2.82,4.53,2.82,6.07,1.455,7.1-.579,7.1A3.642,3.642,0,0,1-4.486,3.984l-.02-.159-1.954.517.024.127C-5.919,7.229-3.7,8.943-.642,8.943c3.275,0,5.563-1.832,5.563-4.456,0-3.081-3.127-4.01-4.994-4.564" transform="translate(6.46 6.756)" fill="#151515"/>
        </g>
        <g id="Group_329" data-name="Group 329" transform="translate(132.991 8.82)">
          <path id="Path_260" data-name="Path 260" d="M-.15-.122l-.049.1a5.714,5.714,0,0,1-5.114,3A5.623,5.623,0,0,1-11.08-2.879,5.574,5.574,0,0,1-5.313-8.763,5.734,5.734,0,0,1-.447-6.178l.052.084L1.639-6.6l-.088-.157a7.773,7.773,0,0,0-6.864-3.973,7.668,7.668,0,0,0-7.825,7.855A7.663,7.663,0,0,0-5.313,4.966,7.684,7.684,0,0,0,1.762.568L1.831.42Z" transform="translate(13.138 10.734)" fill="#151515"/>
        </g>
        <g id="Group_330" data-name="Group 330" transform="translate(170.239 22.231)">
          <path id="Path_261" data-name="Path 261" d="M-.012-.024A1.03,1.03,0,0,0,1.031-1.067,1.067,1.067,0,0,0-.012-2.127a1.05,1.05,0,0,0-1.057,1.06A1.046,1.046,0,0,0-.012-.024" transform="translate(1.069 2.127)" fill="#151515"/>
        </g>
      </g>
      <path id="Path_263" data-name="Path 263" d="M0-.384H185v-33.34H0Zm0-33.34M2.243-31.8H182.767V-2.318H2.243Z" transform="translate(0 33.724)" fill="#151515"/>
      <g id="Group_334" data-name="Group 334" transform="translate(0 0)" clip-path="url(#clip-path)">
        <g id="Group_332" data-name="Group 332" transform="translate(116.204 10.896)">
          <path id="Path_264" data-name="Path 264" d="M-.1-.1A6.261,6.261,0,0,0,.55-1.511,6.177,6.177,0,0,0,.775-3.306L-.919-3.654l-.006.2c0,.137,0,.18-.018.366,0,.066-.023.156-.027.189a4.433,4.433,0,0,1-.161.868c-.062.2-.155.467-.234.646L-4.146-4.222c-.189-.19-.346-.374-.453-.5a3.337,3.337,0,0,1-.3-.458A1.959,1.959,0,0,1-5.063-5.6,1.527,1.527,0,0,1-5.116-6a1.757,1.757,0,0,1,.074-.573,1.093,1.093,0,0,1,.254-.385,1.123,1.123,0,0,1,.4-.255,1.44,1.44,0,0,1,1.01-.008,2.612,2.612,0,0,1,.322.179,2.36,2.36,0,0,1,.849,1.27c.021.1.031.161.031.161L-.6-6.038c-.014-.071-.031-.144-.049-.213s-.04-.142-.065-.214c-.049-.147-.094-.254-.094-.254v0A3.215,3.215,0,0,0-3.022-8.823a3.5,3.5,0,0,0-.817-.095,3.6,3.6,0,0,0-1.326.231,3.067,3.067,0,0,0-1.025.632,2.616,2.616,0,0,0-.639.9A2.964,2.964,0,0,0-7.055-6a3.44,3.44,0,0,0,.243,1.256,4.446,4.446,0,0,0,.473.866,5,5,0,0,0-.621.389,4.342,4.342,0,0,0-.806.777,3.574,3.574,0,0,0-.529.953A3.032,3.032,0,0,0-8.5-.645,3.12,3.12,0,0,0-8.183.76,3.287,3.287,0,0,0-7.37,1.808a3.489,3.489,0,0,0,1.14.646,3.862,3.862,0,0,0,1.288.229A5.4,5.4,0,0,0-2.79,2.255,6.121,6.121,0,0,0-1.277,1.31l.643.65.622.56L.031,2.5,1.9,1.914ZM-4.776,1.017A2.052,2.052,0,0,1-6.511.091,1.843,1.843,0,0,1-6.6-1.372,2.854,2.854,0,0,1-5.289-2.7l2.8,2.821a4.071,4.071,0,0,1-2.285.895" transform="translate(8.497 8.918)" fill="#151515"/>
        </g>
        <g id="Group_333" data-name="Group 333" transform="translate(153.009 8.82)">
          <path id="Path_265" data-name="Path 265" d="M-.09,0A7.672,7.672,0,0,0-7.923,7.855,7.667,7.667,0,0,0-.09,15.7,7.675,7.675,0,0,0,7.756,7.855,7.68,7.68,0,0,0-.09,0m0,13.73A5.633,5.633,0,0,1-5.862,7.855,5.576,5.576,0,0,1-.09,1.971a5.636,5.636,0,0,1,5.77,5.884A5.632,5.632,0,0,1-.09,13.73" transform="translate(7.923)" fill="#151515"/>
        </g>
      </g>
    </g>
    <g id="Group_698" data-name="Group 698" transform="translate(13.5 -1.5)">
      <line id="Line_59" data-name="Line 59" y1="15" x2="15" transform="translate(-3041.5 3157.5)" fill="none" stroke="#151515" stroke-linecap="round" stroke-width="1"/>
      <line id="Line_60" data-name="Line 60" x1="15" y1="15" transform="translate(-3041.5 3157.5)" fill="none" stroke="#151515" stroke-linecap="round" stroke-width="1"/>
    </g>
  </g>
</svg>
