<svg xmlns="http://www.w3.org/2000/svg" width="26" height="20" viewBox="0 0 26 20"><g transform="translate(0 9.259)"><path d="M24.705,173.574h-.867V172.9h-.867v.674H1.3a1.316,1.316,0,0,0,0,2.632v6.141a1.309,1.309,0,0,0,.991,1.278l21.335.016a1.309,1.309,0,0,0,1.073-1.294v-6.141a1.316,1.316,0,0,0,.005-2.632Zm-.867,8.773a.437.437,0,0,1-.433.439H2.6a.437.437,0,0,1-.433-.439v-6.141H23.838Zm.867-7.018H1.3a.439.439,0,0,1,0-.877h23.4a.439.439,0,0,1,0,.877Z" transform="translate(0 -172.9)" fill="#151515"/></g><g transform="translate(12.846)"><path d="M249.65,0h-5.264a1.32,1.32,0,0,0-1.316,1.316V2.632h-2.632a.44.44,0,0,0-.439.439V4.825a.44.44,0,0,0,.439.439h6.141a.44.44,0,0,0,.439-.439V3.071a.44.44,0,0,0-.439-.439h-2.632V1.316a.44.44,0,0,1,.439-.439h5.264a.44.44,0,0,1,.439.439v8.17h.877V1.316A1.32,1.32,0,0,0,249.65,0Zm-3.509,3.509v.877h-5.264V3.509Z" transform="translate(-240)" fill="#151515"/></g><path d="M248,112h.877v.877H248Z" transform="translate(-234.569 -105.929)" fill="#151515"/><path d="M248,144h.877v.877H248Z" transform="translate(-234.569 -136.195)" fill="#151515"/><path d="M280,112h.877v.877H280Z" transform="translate(-264.836 -105.929)" fill="#151515"/><path d="M280,144h.877v.877H280Z" transform="translate(-264.836 -136.195)" fill="#151515"/><path d="M312,112h.877v.877H312Z" transform="translate(-295.103 -105.929)" fill="#151515"/><path d="M312,144h.877v.877H312Z" transform="translate(-295.103 -136.195)" fill="#151515"/><path d="M344,112h.877v.877H344Z" transform="translate(-325.371 -105.929)" fill="#151515"/><path d="M344,144h.877v.877H344Z" transform="translate(-325.371 -136.195)" fill="#151515"/></svg>