<svg xmlns="http://www.w3.org/2000/svg" width="26" height="20" viewBox="0 0 26 20"><g transform="translate(0 0)"><path d="M20.8,4.883v.87a1.3,1.3,0,0,1-1.3,1.3H16.033a1.3,1.3,0,0,1-1.3-1.3v-.87a1.3,1.3,0,0,1,1.3-1.3H19.5A1.3,1.3,0,0,1,20.8,4.883Zm-9.533,0v.87a1.3,1.3,0,0,1-1.3,1.3H6.5a1.3,1.3,0,0,1-1.3-1.3v-.87a1.3,1.3,0,0,1,1.3-1.3H9.967A1.3,1.3,0,0,1,11.267,4.883ZM1.733,9.23a1.3,1.3,0,0,1,1.3-1.3H22.967a1.3,1.3,0,0,1,1.3,1.3v1.3H1.733Zm.867,10H1.733V17.491H2.6Zm21.667,0H23.4V17.491h.867Zm.867-2.609H.867V11.4H25.133Zm.433-6.087h-.433V9.23a2.17,2.17,0,0,0-1.3-1.989V.535a.429.429,0,0,0-.26-.4c.011-.011-1.4-.038-1.4-.038-.027,0-.049.005-.076.005A.356.356,0,0,1,22.024.1H18.937L2.416.116c.005.005.005.011.011.016a.442.442,0,0,0-.26.4V7.241A2.17,2.17,0,0,0,.867,9.23v1.3H.433A.435.435,0,0,0,0,10.97v6.087a.435.435,0,0,0,.433.435H.867v2.174A.435.435,0,0,0,1.3,20.1H3.033a.435.435,0,0,0,.433-.435V17.491H22.533v2.174a.435.435,0,0,0,.433.435H24.7a.435.435,0,0,0,.433-.435V17.491h.433A.435.435,0,0,0,26,17.057V10.97A.432.432,0,0,0,25.567,10.535Zm-2.6-3.478H21.222a2.144,2.144,0,0,0,.444-1.3v-.87A2.17,2.17,0,0,0,19.5,2.709H16.033a2.17,2.17,0,0,0-2.167,2.174v.87a2.144,2.144,0,0,0,.444,1.3H11.689a2.144,2.144,0,0,0,.444-1.3v-.87A2.17,2.17,0,0,0,9.967,2.709H6.5A2.17,2.17,0,0,0,4.333,4.883v.87a2.144,2.144,0,0,0,.444,1.3H3.033V.97H22.967Z" transform="translate(0 -0.1)" fill="#151515"/></g></svg>