<svg xmlns="http://www.w3.org/2000/svg" width="150" height="28" viewBox="0 0 150 28"><path d="M135.924,44.97h-9.38L121.36,31.908l-3.3,13.063h-7.667l-5.955-13.019V44.97H96.385V20.146h10.346l6.411,14.032,3.549-14.032h9.339ZM86.233,32.559A4.393,4.393,0,0,0,84.9,29.326,4.332,4.332,0,0,0,81.736,28a4.569,4.569,0,0,0-3.212,7.79,4.381,4.381,0,0,0,3.212,1.323A4.332,4.332,0,0,0,84.9,35.792a4.393,4.393,0,0,0,1.328-3.233m8.011,0a12.363,12.363,0,0,1-3.662,8.983,12.4,12.4,0,0,1-17.735,0,12.363,12.363,0,0,1-3.662-8.983,12.366,12.366,0,0,1,3.662-8.984,12.4,12.4,0,0,1,17.735,0,12.366,12.366,0,0,1,3.662,8.984M68.756,44.97H53.849V20.146H61.9V38.113h6.854Zm-17.007,0H43.268V20.146h8.481ZM33.2,36.769a1.2,1.2,0,0,0-1.371-1.346H28.7v2.734H31.83A1.22,1.22,0,0,0,33.2,36.769m0-8.42A1.2,1.2,0,0,0,31.83,27H28.7v2.69H31.83A1.2,1.2,0,0,0,33.2,28.349m7.925,9.765a6.676,6.676,0,0,1-1.971,4.839,6.45,6.45,0,0,1-4.8,2.018H20.692V20.146h13.8a6.3,6.3,0,0,1,4.711,2A6.736,6.736,0,0,1,41.126,27a6.63,6.63,0,0,1-2.741,5.555,6.556,6.556,0,0,1,2.741,5.555m103.668,6.471a3.281,3.281,0,0,1-.918,2.6,3.127,3.127,0,0,1-2.136.662,3.352,3.352,0,0,1-1.834-.472,1.89,1.89,0,0,1-.917-1.426h.8q.266,1.21,1.9,1.21a2.719,2.719,0,0,0,1.288-.261,1.8,1.8,0,0,0,.76-.821,2.5,2.5,0,0,0,.238-.789,9.062,9.062,0,0,0,.062-1.2,2.26,2.26,0,0,1-.866.841,2.817,2.817,0,0,1-1.434.394,2.611,2.611,0,0,1-2.154-.961,3.933,3.933,0,0,1-.773-2.54,3.761,3.761,0,0,1,.778-2.571,2.756,2.756,0,0,1,2.175-.879,2.565,2.565,0,0,1,1.407.42,2.121,2.121,0,0,1,.841.916l.025-1.158h.755Zm-.755-2.751a3.2,3.2,0,0,0-.565-1.973,1.959,1.959,0,0,0-1.658-.8,2.04,2.04,0,0,0-.855.166,2.217,2.217,0,0,0-.666.47,2.907,2.907,0,0,0-.679,2.113,3.247,3.247,0,0,0,.6,2.081,1.973,1.973,0,0,0,1.628.745,1.918,1.918,0,0,0,1.589-.783,3.184,3.184,0,0,0,.609-2.018m5.592-2.636a2.42,2.42,0,0,0-1.112.23,1.644,1.644,0,0,0-.709.751,3.765,3.765,0,0,0-.327,1.669v3.3h-.754V38.55h.754v1.235a2.158,2.158,0,0,1,.929-1.159,2.532,2.532,0,0,1,1.219-.254Zm6.623,2.65a3.8,3.8,0,0,1-.8,2.5,2.7,2.7,0,0,1-2.2.974,2.812,2.812,0,0,1-2.137-.879,3.636,3.636,0,0,1-.891-2.585,3.815,3.815,0,0,1,.8-2.533,3.062,3.062,0,0,1,4.466.025,3.837,3.837,0,0,1,.767,2.5m-.8.024a3.471,3.471,0,0,0-.49-1.986,2.167,2.167,0,0,0-3.354-.063,3.266,3.266,0,0,0-.579,2.025,3.194,3.194,0,0,0,.591,2.049,1.974,1.974,0,0,0,1.633.738,1.925,1.925,0,0,0,1.683-.853,3.3,3.3,0,0,0,.515-1.91m7.351,3.273h-.754v-.916a3.119,3.119,0,0,1-.993.846,2.519,2.519,0,0,1-1.132.248,2.214,2.214,0,0,1-1.759-.675,2.511,2.511,0,0,1-.526-1.692V38.55h.754v4.341q0,1.745,1.671,1.744a1.74,1.74,0,0,0,1.5-.751,2.817,2.817,0,0,0,.49-1.694V38.55h.754Zm7.891-3.273a3.9,3.9,0,0,1-.7,2.394,2.6,2.6,0,0,1-2.2,1.057A2.977,2.977,0,0,1,166.463,45a2.306,2.306,0,0,1-1-.916v3.653h-.754V38.55h.754v1.158a2.423,2.423,0,0,1,.917-.929,2.538,2.538,0,0,1,1.357-.407,2.743,2.743,0,0,1,2.136.827,3.843,3.843,0,0,1,.817,2.673m-.8-.076a3.977,3.977,0,0,0-.169-1.267,2.214,2.214,0,0,0-.51-.834,2.06,2.06,0,0,0-.722-.49,2.239,2.239,0,0,0-.8-.146,1.94,1.94,0,0,0-1.7.852,3.317,3.317,0,0,0-.528,1.948,3.071,3.071,0,0,0,.627,2.012,1.971,1.971,0,0,0,1.585.763,1.946,1.946,0,0,0,1.614-.758,3.282,3.282,0,0,0,.6-2.081" transform="translate(-20.692 -19.843)" fill="#151515"/></svg>