<svg xmlns="http://www.w3.org/2000/svg" width="20" height="20" viewBox="0 0 20 20"><g transform="translate(0)"><g fill="none" stroke="#151515" stroke-width="0.8"><ellipse cx="10" cy="10" rx="10" ry="10" stroke="none"/><ellipse cx="10" cy="10" rx="9.6" ry="9.6" fill="none"/></g><g transform="translate(3.839 3.891)"><g transform="translate(0)"><path d="M749.539,299.543a.427.427,0,0,1,.367.259,1.134,1.134,0,0,1,.117.447c0,.032.006.059.01.082v.173c-.005.031-.01.062-.014.092-.014.089-.026.174-.044.247a1.783,1.783,0,0,1-.714,1.077.52.52,0,0,1-.318.122h-.016a.4.4,0,0,1-.4-.267,1.393,1.393,0,0,1-.1-.843,1.933,1.933,0,0,1,.542-1.094.987.987,0,0,1,.45-.28.437.437,0,0,1,.118-.016h0m0-.643a1.077,1.077,0,0,0-.278.037,1.616,1.616,0,0,0-.745.449,2.578,2.578,0,0,0-.721,1.443,2.02,2.02,0,0,0,.15,1.222,1.037,1.037,0,0,0,.956.634h.042a1.167,1.167,0,0,0,.7-.246,2.432,2.432,0,0,0,.961-1.45c.034-.142.05-.288.076-.432v-.277c0-.026-.01-.053-.011-.081a1.753,1.753,0,0,0-.19-.7,1.052,1.052,0,0,0-.935-.6Z" transform="translate(-738.342 -295.134)" fill="#151515" stroke="#151515" stroke-width="0.2"/><path d="M123.174,390.343a.963.963,0,0,1,.588.207,1.554,1.554,0,0,1,.32.423c.071.115.141.233.209.349.146.244.3.5.459.746a8.972,8.972,0,0,0,1.4,1.645,2.284,2.284,0,0,1,.558.737,1.4,1.4,0,0,1,.134.544,1.074,1.074,0,0,1-.117.5.521.521,0,0,1-.513.321H126.1a5.017,5.017,0,0,1-.819-.1l-.132-.023c-.189-.033-.38-.063-.566-.093-.346-.057-.7-.115-1.052-.18a3.559,3.559,0,0,0-.665-.06,5.53,5.53,0,0,0-1.032.108c-.226.042-.451.088-.669.132-.193.039-.391.081-.585.117a4,4,0,0,1-.733.079c-.055,0-.11,0-.161-.005a.758.758,0,0,1-.69-.638,1.229,1.229,0,0,1,.154-.727,3.012,3.012,0,0,1,.741-.937c.3-.268.551-.5.782-.719a5.116,5.116,0,0,0,.6-.733c.044-.06.084-.118.126-.175.066-.088.131-.179.194-.266.179-.246.349-.478.528-.7a1.384,1.384,0,0,1,.645-.479,1.2,1.2,0,0,1,.406-.076h0m0-.642a1.95,1.95,0,0,0-.609.1,2.036,2.036,0,0,0-.944.688c-.256.321-.494.656-.737.986a6.2,6.2,0,0,1-.656.825c-.249.239-.505.473-.763.7a3.63,3.63,0,0,0-.894,1.14,1.85,1.85,0,0,0-.209,1.1,1.4,1.4,0,0,0,1.283,1.184c.068.005.136.006.2.006a4.6,4.6,0,0,0,.852-.091c.418-.078.833-.173,1.251-.248a5.1,5.1,0,0,1,.916-.1,2.864,2.864,0,0,1,.546.049c.542.1,1.086.184,1.629.276a6.369,6.369,0,0,0,1.06.13h.132a1.153,1.153,0,0,0,1.063-.679,1.787,1.787,0,0,0-.005-1.59,2.926,2.926,0,0,0-.707-.945,8.24,8.24,0,0,1-1.3-1.526c-.229-.353-.438-.718-.658-1.078a2,2,0,0,0-.485-.6,1.6,1.6,0,0,0-.971-.331Z" transform="translate(-116.854 -384.79)" fill="#151515" stroke="#151515" stroke-width="0.2"/><path d="M528.614.643a.64.64,0,0,1,.311.089.916.916,0,0,1,.348.423,1.958,1.958,0,0,1,.174.855,2.211,2.211,0,0,1-.6,1.536.87.87,0,0,1-.514.282.671.671,0,0,1-.1.008.557.557,0,0,1-.438-.215,1.325,1.325,0,0,1-.335-.729,2.381,2.381,0,0,1,.151-1.322,1.689,1.689,0,0,1,.612-.791.735.735,0,0,1,.394-.136h0m0-.643a1.355,1.355,0,0,0-.742.239,2.335,2.335,0,0,0-.852,1.073,3.022,3.022,0,0,0-.2,1.671,1.952,1.952,0,0,0,.5,1.072,1.207,1.207,0,0,0,.911.422,1.333,1.333,0,0,0,.185-.013,1.506,1.506,0,0,0,.889-.472,2.858,2.858,0,0,0,.786-1.98,2.621,2.621,0,0,0-.242-1.145,1.541,1.541,0,0,0-.614-.7A1.307,1.307,0,0,0,528.614,0Z" transform="translate(-520.148 0)" fill="#151515" stroke="#151515" stroke-width="0.2"/><path d="M191.846,14.443a.716.716,0,0,1,.422.147,1.822,1.822,0,0,1,.7,1.09,2.718,2.718,0,0,1,.077.544,2.049,2.049,0,0,1-.151.8.942.942,0,0,1-.358.45.617.617,0,0,1-.317.1.732.732,0,0,1-.38-.128,1.608,1.608,0,0,1-.669-.882,2.408,2.408,0,0,1-.142-.969,1.647,1.647,0,0,1,.285-.852.649.649,0,0,1,.537-.3h0m0-.643a1.291,1.291,0,0,0-1.065.576,2.276,2.276,0,0,0-.4,1.175,3.062,3.062,0,0,0,.176,1.223,2.248,2.248,0,0,0,.936,1.216,1.354,1.354,0,0,0,.719.226,1.252,1.252,0,0,0,.646-.19,1.571,1.571,0,0,0,.615-.737,2.686,2.686,0,0,0,.209-1.063,3.33,3.33,0,0,0-.1-.7,2.465,2.465,0,0,0-.944-1.456,1.36,1.36,0,0,0-.8-.271Z" transform="translate(-187.979 -13.626)" fill="#151515" stroke="#151515" stroke-width="0.2"/><path d="M1.159,302.343a.51.51,0,0,1,.208.045,1.47,1.47,0,0,1,.563.5,2.073,2.073,0,0,1,.345,1.1V304a1.168,1.168,0,0,1-.112.532.428.428,0,0,1-.31.27.372.372,0,0,1-.074.008.62.62,0,0,1-.272-.078,1.226,1.226,0,0,1-.494-.448,2,2,0,0,1-.362-1.154,1.327,1.327,0,0,1,.134-.543.408.408,0,0,1,.161-.186.4.4,0,0,1,.213-.057h0m0-.643a1.033,1.033,0,0,0-.955.609,1.984,1.984,0,0,0-.2.8,2.629,2.629,0,0,0,.462,1.521,1.872,1.872,0,0,0,.746.675,1.24,1.24,0,0,0,.561.147.953.953,0,0,0,.205-.021,1.071,1.071,0,0,0,.751-.6A1.8,1.8,0,0,0,2.916,304a2.708,2.708,0,0,0-.467-1.493,2.109,2.109,0,0,0-.813-.7,1.112,1.112,0,0,0-.477-.107Z" transform="translate(-0.008 -297.899)" fill="#151515" stroke="#151515" stroke-width="0.2"/></g></g></g></svg>